<?xml version="1.0" encoding="UTF-8"?>
<svg id="_レイヤー_2" data-name="レイヤー 2" xmlns="http://www.w3.org/2000/svg" viewBox="0 0 64.29 45">
  <defs>
    <style>
      .cls-1 {
        fill: #fff;
      }
    </style>
  </defs>
  <g id="_レイヤー_3" data-name="レイヤー 3">
    <g>
      <path class="cls-1" d="M32.14,2.2h0c5.51,0,20.66.23,24.55,1.27,2.01.54,3.59,2.12,4.13,4.13,1.25,4.67,1.27,14.8,1.27,14.9s-.02,10.23-1.27,14.91c-.54,2.01-2.12,3.59-4.13,4.13-3.88,1.04-19.04,1.27-24.55,1.27-5.51,0-20.66-.23-24.55-1.27-2.01-.54-3.59-2.12-4.13-4.13-1.25-4.67-1.27-14.8-1.27-14.9s.02-10.23,1.27-14.91c.54-2.01,2.12-3.59,4.13-4.13,3.88-1.04,19.04-1.27,24.55-1.27M32.14,0S12.04,0,7.03,1.34c-2.77.74-4.94,2.92-5.68,5.68-1.34,5.01-1.34,15.47-1.34,15.47,0,0,0,10.46,1.34,15.47.74,2.77,2.92,4.94,5.68,5.68,5.01,1.34,25.12,1.34,25.12,1.34,0,0,20.1,0,25.12-1.34,2.77-.74,4.94-2.92,5.68-5.68,1.34-5.01,1.34-15.47,1.34-15.47,0,0,0-10.46-1.34-15.47-.74-2.77-2.92-4.94-5.68-5.68-5.01-1.34-25.12-1.34-25.12-1.34h0Z"/>
      <polygon class="cls-1" points="25.71 32.14 25.71 12.86 42.42 22.5 25.71 32.14"/>
    </g>
  </g>
</svg>